<svg xmlns="http://www.w3.org/2000/svg" width="100.786" height="62.17" viewBox="0 0 100.786 62.17"><g fill="#ffb100"><path d="M 79.85335540771484 61.66989898681641 L 21.01051139831543 61.66989898681641 C 20.18207550048828 60.6964225769043 16.20661735534668 56.16409301757812 11.48736000061035 53.1058464050293 C 6.971007823944092 50.17909622192383 1.921574592590332 48.69804763793945 0.4999999105930328 48.31764602661133 L 0.4999999105930328 14.53219032287598 C 1.829658389091492 14.00562286376953 6.999387741088867 11.86976432800293 11.49742698669434 8.797818183898926 C 16.14198303222656 5.625812530517578 20.17642784118652 1.383290767669678 20.99709892272949 0.5000047087669373 L 79.86593627929688 0.5000047087669373 C 80.62734985351562 1.454572677612305 84.06581878662109 5.605973720550537 88.71595001220703 8.797178268432617 C 93.21554565429688 11.88510990142822 98.86044311523438 14.02687072753906 100.2863998413086 14.54322624206543 L 100.2863998413086 48.30890274047852 C 98.77004241943359 48.67881774902344 93.25065612792969 50.16011047363281 88.72602844238281 53.1064453125 C 84.06136322021484 56.14396667480469 80.61531829833984 60.63314056396484 79.85335540771484 61.66989898681641 Z" stroke="none"/><path d="M 21.21571350097656 1.000003814697266 C 20.12499237060547 2.166114807128906 16.28870391845703 6.131095886230469 11.77940368652344 9.210712432861328 C 7.485542297363281 12.14321899414062 2.713935852050781 14.18251037597656 1 14.87236022949219 L 1 47.93669509887695 C 2.815986633300781 48.44809341430664 7.519378662109375 49.93865585327148 11.75925445556641 52.68624496459961 C 16.29122161865234 55.62310409545898 20.14187622070312 59.89850234985352 21.24029541015625 61.16989898681641 L 79.60218811035156 61.16989898681641 C 80.61575317382812 59.82103729248047 83.98234558105469 55.59873199462891 88.45318603515625 52.68745803833008 C 92.71746063232422 49.91065216064453 97.84703826904297 48.41768646240234 99.78639984130859 47.91896438598633 L 99.78639984130859 14.8944206237793 C 97.94508361816406 14.21590805053711 92.74288940429688 12.16715240478516 88.43302917480469 9.209445953369141 C 83.98944091796875 6.159984588623047 80.63768005371094 2.243247985839844 79.62680816650391 1.000003814697266 L 21.21571350097656 1.000003814697266 M 20.77782440185547 3.814697265625e-06 L 80.10879516601562 3.814697265625e-06 C 80.10879516601562 3.814697265625e-06 83.82945251464844 4.837364196777344 88.99887084960938 8.384925842285156 C 94.16825103759766 11.93249893188477 100.7863998413086 14.19027328491211 100.7863998413086 14.19027328491211 L 100.7863998413086 48.70517730712891 C 100.7863998413086 48.70517730712891 94.16825103759766 50.15925598144531 88.99887084960938 53.52544403076172 C 83.82945251464844 56.89161682128906 80.10879516601562 62.16989898681641 80.10879516601562 62.16989898681641 L 20.77782440185547 62.16989898681641 C 20.77782440185547 62.16989898681641 16.40989685058594 56.89161682128906 11.21542358398438 53.52544403076172 C 6.020973205566406 50.15925598144531 0 48.70517730712891 0 48.70517730712891 L 0 14.19027328491211 C 0 14.19027328491211 6.020973205566406 11.93249893188477 11.21542358398438 8.384925842285156 C 16.40989685058594 4.837364196777344 20.77782440185547 3.814697265625e-06 20.77782440185547 3.814697265625e-06 Z" stroke="none" fill="#000"/></g></svg>